<?xml version="1.0" encoding="UTF-8"?>
<svg xmlns="http://www.w3.org/2000/svg" xmlns:xlink="http://www.w3.org/1999/xlink" width="112.5pt" height="112.499997pt" viewBox="0 0 112.5 112.499997" version="1.2">
<defs>
<clipPath id="clip1">
  <path d="M 12.746094 9.777344 L 104.242188 9.777344 L 104.242188 101.277344 L 12.746094 101.277344 Z M 12.746094 9.777344 "/>
</clipPath>
</defs>
<g id="surface1">
<g clip-path="url(#clip1)" clip-rule="nonzero">
<path style=" stroke:none;fill-rule:nonzero;fill:rgb(94.509888%,37.249756%,13.328552%);fill-opacity:1;" d="M 12.742188 55.527344 C 12.742188 30.265625 33.230469 9.777344 58.492188 9.777344 C 83.757812 9.777344 104.242188 30.265625 104.242188 55.527344 C 104.242188 80.789062 83.757812 101.277344 58.492188 101.277344 C 33.230469 101.277344 12.742188 80.789062 12.742188 55.527344 Z M 12.742188 55.527344 "/>
</g>
<path style=" stroke:none;fill-rule:nonzero;fill:rgb(100%,100%,100%);fill-opacity:1;" d="M 81.914062 51.527344 L 66.257812 35.871094 C 61.316406 30.929688 53.679688 38.617188 58.640625 43.578125 L 65.023438 49.957031 L 39.90625 49.957031 C 32.917969 49.957031 32.84375 60.800781 39.832031 60.800781 L 65.039062 60.800781 L 58.625 67.21875 C 53.679688 72.160156 61.371094 79.796875 66.332031 74.835938 L 81.988281 59.179688 C 84.050781 57.09375 83.996094 53.609375 81.914062 51.527344 "/>
</g>
</svg>
