<?xml version="1.0" encoding="UTF-8"?>
<svg xmlns="http://www.w3.org/2000/svg" xmlns:xlink="http://www.w3.org/1999/xlink" width="112.5pt" height="112.499997pt" viewBox="0 0 112.5 112.499997" version="1.2">
<defs>
<clipPath id="clip1">
  <path d="M 11.25 14.035156 L 101.25 14.035156 L 101.25 104.035156 L 11.25 104.035156 Z M 11.25 14.035156 "/>
</clipPath>
</defs>
<g id="surface1">
<g clip-path="url(#clip1)" clip-rule="nonzero">
<path style=" stroke:none;fill-rule:nonzero;fill:rgb(94.509888%,37.249756%,13.328552%);fill-opacity:1;" d="M 101.25 59.035156 C 101.25 34.183594 81.097656 14.035156 56.25 14.035156 C 31.402344 14.035156 11.25 34.183594 11.25 59.035156 C 11.25 83.882812 31.402344 104.03125 56.25 104.03125 C 81.097656 104.03125 101.25 83.882812 101.25 59.035156 Z M 101.25 59.035156 "/>
</g>
<path style=" stroke:none;fill-rule:nonzero;fill:rgb(100%,100%,100%);fill-opacity:1;" d="M 33.214844 55.097656 L 48.613281 39.699219 C 53.476562 34.835938 60.984375 42.402344 56.105469 47.28125 L 49.828125 53.554688 L 74.53125 53.554688 C 81.40625 53.554688 81.480469 64.21875 74.605469 64.21875 L 49.8125 64.21875 L 56.121094 70.53125 C 60.984375 75.394531 53.421875 82.902344 48.542969 78.023438 L 33.140625 62.625 C 31.109375 60.574219 31.164062 57.148438 33.214844 55.097656 "/>
</g>
</svg>
